<?xml version="1.0" standalone="no"?>
<!DOCTYPE svg PUBLIC "-//W3C//DTD SVG 20010904//EN"
 "http://www.w3.org/TR/2001/REC-SVG-20010904/DTD/svg10.dtd">
<svg version="1.0" xmlns="http://www.w3.org/2000/svg"
 width="700.000000pt" height="700.000000pt" viewBox="0 0 700.000000 700.000000"
 preserveAspectRatio="xMidYMid meet">
<metadata>
Created by potrace 1.11, written by Peter Selinger 2001-2013
</metadata>
<g transform="translate(0.000000,700.000000) scale(0.100000,-0.100000)"
fill="#000000" stroke="none">
<path d="M2122 6984 c-18 -9 -43 -31 -55 -48 l-22 -31 -2 -968 c-1 -533 -4
-971 -6 -974 -3 -2 -437 -5 -964 -5 l-959 0 -39 -21 c-69 -40 -76 -65 -73
-279 3 -204 6 -213 72 -262 27 -21 34 -21 991 -21 530 0 966 -3 970 -7 9 -8 9
-1728 0 -1736 -4 -4 -439 -7 -968 -7 -693 -1 -968 -4 -982 -12 -11 -6 -33 -25
-50 -43 l-30 -31 -3 -192 c-3 -219 3 -244 73 -283 l37 -22 960 0 c528 0 962
-2 964 -5 3 -3 6 -438 7 -968 2 -944 2 -965 22 -998 39 -65 66 -72 277 -69
204 3 213 6 262 72 21 27 21 34 21 991 0 530 3 966 7 970 5 5 1198 9 1668 6
l75 -1 0 -969 c0 -967 0 -970 21 -998 11 -15 35 -38 53 -50 29 -20 44 -22 214
-22 208 -2 235 6 273 74 l22 38 -2 963 -1 964 25 1 c14 0 448 0 965 0 906 1
941 2 977 20 24 12 45 34 58 60 20 37 21 55 18 224 -3 201 -6 210 -72 259 -27
21 -34 21 -997 21 l-969 0 -1 55 c-3 411 1 1683 6 1688 4 4 438 7 964 7 927 0
959 1 994 19 66 36 75 67 77 269 1 198 -6 229 -64 270 l-31 22 -969 2 c-532 1
-970 4 -973 7 -3 2 -5 436 -5 963 0 908 -1 960 -19 994 -35 70 -49 74 -276 74
l-202 0 -36 -35 c-19 -19 -39 -48 -43 -65 -4 -16 -8 -457 -7 -978 0 -522 -3
-951 -8 -954 -6 -3 -1641 -7 -1732 -3 -7 0 -10 330 -10 969 0 963 0 970 -21
997 -49 66 -58 69 -262 72 -157 2 -192 0 -220 -14z m2249 -2614 c4 -17 3
-1740 -1 -1741 -17 -4 -1740 -3 -1741 1 -1 3 -2 394 -3 870 -1 679 1 866 11
870 16 7 1733 7 1734 0z"/>
<path d="M3360 4215 c-261 -52 -477 -247 -557 -504 -23 -73 -27 -104 -27 -206
0 -184 46 -321 151 -452 167 -209 423 -312 676 -273 350 53 612 342 622 687 4
120 -13 215 -53 311 -94 224 -279 377 -527 437 -54 13 -219 13 -285 0z m193
-581 c34 -8 73 -53 86 -99 28 -101 -73 -203 -173 -174 -63 18 -98 59 -109 125
-10 64 49 145 113 157 25 4 32 3 83 -9z"/>
<path d="M484 6689 c-142 -54 -222 -211 -178 -355 18 -62 63 -119 192 -247
l109 -109 -122 -122 c-68 -68 -134 -141 -148 -162 -48 -78 -56 -180 -20 -264
31 -71 74 -116 146 -150 48 -23 69 -28 125 -26 106 3 147 28 294 174 71 70
133 127 138 127 5 0 68 -58 139 -128 154 -151 190 -171 301 -172 60 0 84 5
124 25 106 54 160 142 160 260 1 112 -20 148 -171 302 -71 71 -130 131 -132
134 -3 2 54 64 126 137 157 158 178 195 178 307 -1 61 -5 84 -27 125 -64 121
-194 184 -321 155 -74 -17 -113 -46 -253 -185 l-123 -122 -93 94 c-129 132
-201 190 -251 204 -67 20 -137 19 -193 -2z"/>
<path d="M5450 1734 c-124 -45 -193 -142 -194 -274 -1 -111 19 -145 171 -300
70 -72 130 -133 132 -135 2 -3 -57 -67 -131 -143 -157 -160 -178 -199 -174
-313 8 -186 188 -314 371 -264 54 15 107 56 228 177 66 65 123 118 128 116 5
-2 67 -61 139 -131 152 -149 188 -170 295 -171 237 -3 373 261 236 457 -16 23
-81 93 -144 155 l-115 114 123 123 c165 164 187 201 190 315 1 39 -5 71 -22
110 -49 113 -144 174 -268 174 -109 0 -147 -22 -303 -177 l-133 -132 -133 132
c-94 93 -149 140 -182 154 -63 28 -156 34 -214 13z"/>
</g>
</svg>
